<svg width="32" height="32" viewBox="0 0 32 32" fill="none" xmlns="http://www.w3.org/2000/svg">
<path d="M12 24V6.66667L28 4V21.3333" stroke="#3A3941" stroke-width="2" stroke-linecap="round" stroke-linejoin="round"/>
<path d="M8 28C10.2091 28 12 26.2091 12 24C12 21.7909 10.2091 20 8 20C5.79086 20 4 21.7909 4 24C4 26.2091 5.79086 28 8 28Z" stroke="#3A3941" stroke-width="2" stroke-linecap="round" stroke-linejoin="round"/>
<path d="M24 25.3333C26.2091 25.3333 28 23.5425 28 21.3333C28 19.1242 26.2091 17.3333 24 17.3333C21.7909 17.3333 20 19.1242 20 21.3333C20 23.5425 21.7909 25.3333 24 25.3333Z" stroke="#3A3941" stroke-width="2" stroke-linecap="round" stroke-linejoin="round"/>
</svg>
