<svg width="32" height="32" viewBox="0 0 32 32" fill="none" xmlns="http://www.w3.org/2000/svg">
<path d="M22.6667 28V25.3333C22.6667 23.9188 22.1048 22.5623 21.1046 21.5621C20.1044 20.5619 18.7478 20 17.3333 20H6.66668C5.25219 20 3.89563 20.5619 2.89544 21.5621C1.89525 22.5623 1.33334 23.9188 1.33334 25.3333V28" stroke="#3A3941" stroke-width="2" stroke-linecap="round" stroke-linejoin="round"/>
<path d="M12 14.6667C14.9455 14.6667 17.3333 12.2789 17.3333 9.33333C17.3333 6.38781 14.9455 4 12 4C9.05447 4 6.66666 6.38781 6.66666 9.33333C6.66666 12.2789 9.05447 14.6667 12 14.6667Z" stroke="#3A3941" stroke-width="2" stroke-linecap="round" stroke-linejoin="round"/>
<path d="M30.6667 28V25.3333C30.6658 24.1516 30.2725 23.0037 29.5485 22.0698C28.8245 21.1358 27.8108 20.4688 26.6667 20.1733" stroke="#3A3941" stroke-width="2" stroke-linecap="round" stroke-linejoin="round"/>
<path d="M21.3333 4.17334C22.4806 4.46707 23.4974 5.13427 24.2235 6.06975C24.9497 7.00523 25.3438 8.15578 25.3438 9.34001C25.3438 10.5242 24.9497 11.6748 24.2235 12.6103C23.4974 13.5457 22.4806 14.2129 21.3333 14.5067" stroke="#3A3941" stroke-width="2" stroke-linecap="round" stroke-linejoin="round"/>
</svg>
