<svg width="46" height="39" viewBox="0 0 46 39" fill="none" xmlns="http://www.w3.org/2000/svg">
<path d="M35.8999 0.643069C36.3197 1.44495 36.7199 2.28767 37.1007 3.17124C37.4815 4.05482 37.7467 4.70775 37.8962 5.13006C39.3276 9.1721 39.9709 13.2895 39.8262 17.4823C39.6601 21.6148 38.97 25.3218 37.7557 28.6034L27.8788 29.7586C28.1064 26.7585 27.9752 23.5121 27.4852 20.0194C27.0342 16.4449 26.2852 13.1796 25.2384 10.2235C25.1957 10.1028 25.1102 9.8615 24.982 9.49952C24.8325 9.07722 24.6421 8.63544 24.4109 8.17417C24.2186 7.63121 23.9962 7.09893 23.7436 6.57733C23.5513 6.03437 23.3502 5.56242 23.1403 5.16148L35.8999 0.643069ZM16.4438 7.53284C16.8636 8.33472 17.2638 9.17745 17.6446 10.061C18.0254 10.9446 18.2906 11.5975 18.4401 12.0198C19.8715 16.0619 20.5148 20.1793 20.3701 24.3721C20.204 28.5046 19.5138 32.2116 18.2996 35.4931L8.42269 36.6484C8.6503 33.6483 8.5191 30.4019 8.02909 26.9091C7.57804 23.3347 6.8291 20.0694 5.78228 17.1132C5.73955 16.9926 5.6541 16.7513 5.52592 16.3893C5.37637 15.967 5.18598 15.5252 4.95474 15.0639C4.76247 14.521 4.54003 13.9887 4.28743 13.4671C4.09516 12.9241 3.89408 12.4522 3.68421 12.0513L16.4438 7.53284Z" fill="#BD172C"/>
</svg>
