<svg width="46" height="39" viewBox="0 0 46 39" fill="none" xmlns="http://www.w3.org/2000/svg">
<path d="M9.49564 38.1595C9.07589 37.3577 8.67562 36.5149 8.29484 35.6314C7.91406 34.7478 7.64889 34.0949 7.49935 33.6726C6.06798 29.6305 5.43534 25.5432 5.60142 21.4108C5.74613 17.218 6.42561 13.4808 7.63986 10.1993L17.5168 9.04402C17.2891 12.0441 17.4009 15.3313 17.8519 18.9058C18.3419 22.3986 19.1103 25.623 20.1572 28.5791C20.1999 28.6998 20.296 28.9713 20.4456 29.3936C20.5738 29.7556 20.734 30.208 20.9263 30.751C21.1575 31.2123 21.3692 31.7144 21.5615 32.2573C21.8141 32.7789 22.0454 33.2402 22.2552 33.6411L9.49564 38.1595ZM28.9518 31.2698C28.532 30.4679 28.1317 29.6252 27.751 28.7416C27.3702 27.858 27.105 27.2051 26.9555 26.7828C25.5241 22.7407 24.8915 18.6535 25.0575 14.521C25.2023 10.3282 25.8817 6.59103 27.096 3.30948L36.9729 2.15424C36.7453 5.1543 36.857 8.44156 37.308 12.016C37.798 15.5088 38.5665 18.7332 39.6133 21.6894C39.656 21.81 39.7521 22.0815 39.9017 22.5038C40.0299 22.8658 40.1901 23.3182 40.3824 23.8612C40.6136 24.3225 40.8254 24.8246 41.0176 25.3676C41.2702 25.8892 41.5015 26.3504 41.7114 26.7514L28.9518 31.2698Z" fill="#BD172C"/>
</svg>
