<svg width="70" height="32" viewBox="0 0 70 32" fill="none" xmlns="http://www.w3.org/2000/svg">
<path d="M26.8439 10.9568C26.8439 16.7613 22.2241 13.0464 16.5397 13.0464C10.8553 13.0464 6.21654 16.7419 6.21654 10.9568C6.15677 9.5405 6.37927 8.12652 6.87064 6.80003C7.36201 5.47353 8.11207 4.26196 9.07568 3.23827C10.0393 2.21458 11.1965 1.39995 12.4776 0.843422C13.7587 0.286899 15.1373 0 16.5302 0C17.9232 0 19.3017 0.286899 20.5828 0.843422C21.864 1.39995 23.0212 2.21458 23.9848 3.23827C24.9484 4.26196 25.6984 5.47353 26.1898 6.80003C26.6812 8.12652 26.9037 9.5405 26.8439 10.9568Z" fill="#BD172C"/>
<path d="M66.5398 31.0403L59.3345 21.3662V29.9181C59.3345 30.3869 59.1528 30.8367 58.8289 31.17C58.505 31.5033 58.065 31.6931 57.6044 31.6981C57.3756 31.6982 57.1491 31.652 56.9379 31.5623C56.7268 31.4726 56.5352 31.3412 56.3743 31.1756C56.2134 31.0101 56.0864 30.8137 56.0006 30.5978C55.9148 30.382 55.8719 30.151 55.8744 29.9181V17.245C55.8718 17.0131 55.9148 16.783 56.0009 16.5682C56.0869 16.3534 56.2143 16.1583 56.3754 15.9943C56.5366 15.8303 56.7283 15.7007 56.9394 15.6131C57.1504 15.5255 57.3765 15.4818 57.6044 15.4844H58.2508C58.5164 15.4844 58.7784 15.5473 59.016 15.6682C59.2536 15.7891 59.4602 15.9646 59.6196 16.1809L66.5398 25.4874V17.245C66.5372 17.0131 66.5802 16.783 66.6663 16.5682C66.7523 16.3534 66.8797 16.1583 67.0408 15.9943C67.202 15.8303 67.3937 15.7007 67.6048 15.6131C67.8158 15.5255 68.0419 15.4818 68.2698 15.4844C68.7286 15.4844 69.1687 15.6699 69.4931 16.0001C69.8176 16.3302 69.9999 16.7781 69.9999 17.245V29.9568C69.9999 30.4256 69.8182 30.8754 69.4943 31.2087C69.1704 31.542 68.7304 31.7317 68.2698 31.7368H67.8706C67.6125 31.7255 67.3598 31.6574 67.1301 31.5372C66.9003 31.4169 66.6989 31.2474 66.5398 31.0403Z" fill="#FAF0E0"/>
<path d="M51.768 27.8671C51.4828 28.7317 51.0082 29.519 50.3801 30.1695C49.7507 30.7887 48.9896 31.2522 48.1558 31.5239C47.2256 31.8453 46.2483 32.0023 45.2661 31.9883C44.3438 32.0422 43.4202 31.9092 42.5488 31.597C41.6775 31.2848 40.8757 30.7996 40.19 30.1695C39.5266 29.4504 39.0154 28.6001 38.6884 27.6715C38.3614 26.7429 38.2254 25.7557 38.2889 24.7714V17.2643C38.2939 16.7904 38.4824 16.3377 38.8134 16.0044C39.1444 15.6711 39.5913 15.4842 40.0569 15.4843C40.5208 15.4843 40.9657 15.6718 41.2937 16.0056C41.6217 16.3394 41.806 16.7922 41.806 17.2643V24.6746C41.7255 25.7559 42.0517 26.8279 42.7185 27.6736C43.0431 28.0179 43.4373 28.2862 43.874 28.46C44.3106 28.6337 44.7791 28.7087 45.2471 28.6797C45.7118 28.7098 46.1775 28.6392 46.6134 28.4724C47.0493 28.3056 47.4454 28.0465 47.7756 27.7123C48.4394 26.8951 48.7664 25.848 48.6881 24.7907V17.2643C48.6931 16.7904 48.8816 16.3377 49.2126 16.0044C49.5437 15.6711 49.9905 15.4842 50.4562 15.4843C50.9201 15.4843 51.3649 15.6718 51.6929 16.0056C52.021 16.3394 52.2052 16.7922 52.2052 17.2643V24.6553C52.2527 25.7441 52.1045 26.8325 51.768 27.8671Z" fill="#FAF0E0"/>
<path d="M35.2662 29.2214C34.9836 29.7835 34.5648 30.2629 34.0495 30.6145C33.4733 31.0119 32.8281 31.2942 32.1484 31.4465C31.346 31.6473 30.5221 31.7448 29.6959 31.7367H23.8024C23.3536 31.7367 22.9232 31.5553 22.6059 31.2323C22.2886 30.9094 22.1104 30.4714 22.1104 30.0147V17.1869C22.1103 16.9616 22.1542 16.7386 22.2395 16.5308C22.3248 16.3229 22.4497 16.1344 22.6071 15.976C22.7644 15.8177 22.9511 15.6926 23.1563 15.6082C23.3615 15.5238 23.5811 15.4817 23.8024 15.4842H29.5058C30.8614 15.4103 32.2016 15.8059 33.3081 16.6064C33.7635 16.9707 34.1282 17.4391 34.3726 17.9736C34.617 18.508 34.7343 19.0936 34.7149 19.6828C34.7775 20.4646 34.6051 21.2473 34.2206 21.9272C34.0314 22.2008 33.8148 22.4536 33.5742 22.6817C33.3212 22.8911 33.0472 23.0727 32.7567 23.2235C33.5859 23.5287 34.3343 24.0254 34.9431 24.6746C35.509 25.3969 35.7933 26.3063 35.7415 27.2286C35.7391 27.9216 35.5763 28.6044 35.2662 29.2214ZM31.3309 20.2826C31.3406 20.0407 31.2899 19.8002 31.1835 19.5836C31.0771 19.3671 30.9185 19.1815 30.7225 19.0443C30.2111 18.721 29.6118 18.5719 29.0115 18.6186H27.2434C27.0221 18.6161 26.8025 18.6582 26.5974 18.7426C26.3922 18.8271 26.2055 18.9521 26.0481 19.1104C25.8908 19.2688 25.7658 19.4574 25.6806 19.6652C25.5953 19.873 25.5514 20.096 25.5514 20.3213C25.5514 20.5474 25.5952 20.7713 25.6802 20.9802C25.7652 21.1892 25.8899 21.379 26.047 21.5389C26.2041 21.6988 26.3906 21.8256 26.5959 21.9122C26.8012 21.9987 27.0212 22.0433 27.2434 22.0433H28.7834C29.4409 22.0776 30.096 21.9376 30.6845 21.6369C30.9092 21.506 31.0927 21.3128 31.2139 21.08C31.335 20.8471 31.3888 20.584 31.3689 20.3213L31.3309 20.2826ZM32.2054 26.7836C32.2161 26.5333 32.1663 26.2842 32.0602 26.0581C31.9541 25.8321 31.7951 25.636 31.597 25.4872C31.0225 25.1444 30.3608 24.9828 29.6959 25.0229H27.2434C26.7947 25.0229 26.3643 25.2043 26.047 25.5272C25.7297 25.8502 25.5514 26.2882 25.5514 26.7449V26.8803C25.5514 27.337 25.7297 27.775 26.047 28.0979C26.3643 28.4209 26.7947 28.6023 27.2434 28.6023H29.7339C30.3967 28.646 31.0576 28.4913 31.6351 28.1573C31.8527 28.0164 32.0281 27.8174 32.1421 27.582C32.2561 27.3465 32.3043 27.0837 32.2815 26.8223L32.2054 26.7836Z" fill="#FAF0E0"/>
<path d="M14.6196 29.9374V17.2643C14.6246 16.7904 14.8131 16.3377 15.1442 16.0044C15.4752 15.6711 15.922 15.4842 16.3877 15.4843C16.8516 15.4843 17.2964 15.6718 17.6245 16.0056C17.9525 16.3394 18.1367 16.7922 18.1367 17.2643V29.9374C18.1368 30.4112 17.9531 30.866 17.6256 31.2029C17.2982 31.5398 16.8533 31.7316 16.3877 31.7367C15.9188 31.7367 15.4691 31.5472 15.1375 31.2097C14.8059 30.8723 14.6196 30.4146 14.6196 29.9374Z" fill="#FAF0E0"/>
<path d="M10.4753 28.6796C10.2188 29.3679 9.82378 29.994 9.31559 30.5177C8.83133 31.0036 8.24685 31.3738 7.60456 31.6012C6.86173 31.8469 6.08526 31.971 5.30418 31.9688C4.21352 32.0056 3.1323 31.7522 2.1673 31.2336C1.33832 30.7972 0.601884 30.1989 0 29.4729L2.20532 26.9577C2.61415 27.4178 3.08078 27.8212 3.59316 28.1572C4.05578 28.4464 4.5903 28.5941 5.13308 28.5829C5.42577 28.5984 5.7183 28.5494 5.99065 28.4392C6.263 28.329 6.50873 28.1602 6.71103 27.9444C7.14312 27.3557 7.34624 26.6253 7.28137 25.8935V17.3029C7.28087 17.054 7.33059 16.8076 7.42744 16.579C7.5243 16.3504 7.66623 16.1445 7.84445 15.974C8.02267 15.8035 8.23339 15.6721 8.46355 15.5878C8.69371 15.5036 8.93841 15.4683 9.18251 15.4842C9.65647 15.4842 10.111 15.6758 10.4462 16.0169C10.7813 16.3579 10.9696 16.8206 10.9696 17.3029V26.1063C10.9581 26.9874 10.7906 27.8591 10.4753 28.6796Z" fill="#FAF0E0"/>
</svg>
