<svg width="146" height="65" viewBox="0 0 146 65" fill="none" xmlns="http://www.w3.org/2000/svg">
<path d="M21.7176 58.2558C21.1858 59.6538 20.3668 60.9255 19.3133 61.9894C18.3093 62.9764 17.0975 63.7282 15.7659 64.1902C14.2259 64.6893 12.6161 64.9414 10.9967 64.937C8.73555 65.0116 6.49395 64.4968 4.49329 63.4435C2.77463 62.557 1.24784 61.3418 0 59.8671L4.57212 54.758C5.41971 55.6927 6.38713 56.512 7.4494 57.1946C8.40852 57.782 9.51669 58.0821 10.642 58.0593C11.2488 58.0908 11.8553 57.9913 12.4199 57.7675C12.9846 57.5436 13.494 57.2007 13.9134 56.7623C14.8092 55.5666 15.2304 54.0829 15.0959 52.5964V35.1468C15.0948 34.6411 15.1979 34.1407 15.3987 33.6764C15.5995 33.2121 15.8938 32.7938 16.2633 32.4475C16.6328 32.1012 17.0696 31.8342 17.5468 31.663C18.024 31.4919 18.5313 31.4202 19.0374 31.4525C20.02 31.4525 20.9624 31.8417 21.6572 32.5345C22.352 33.2273 22.7423 34.167 22.7423 35.1468V53.0287C22.7185 54.8183 22.3713 56.589 21.7176 58.2558Z" fill="#393941"/>
<path d="M30.31 60.8103V35.0681C30.3204 34.1056 30.7111 33.186 31.3974 32.509C32.0837 31.8321 33.0102 31.4524 33.9756 31.4525C34.9373 31.4525 35.8596 31.8334 36.5396 32.5115C37.2197 33.1895 37.6017 34.1092 37.6017 35.0681V60.8103C37.6018 61.7729 37.221 62.6967 36.5421 63.381C35.8631 64.0653 34.9409 64.455 33.9756 64.4653C33.0034 64.4653 32.071 64.0802 31.3836 63.3948C30.6962 62.7093 30.31 61.7797 30.31 60.8103Z" fill="#393941"/>
<path d="M73.1145 59.3562C72.5285 60.4978 71.6603 61.4717 70.5919 62.1859C69.3973 62.993 68.0598 63.5665 66.6504 63.8758C64.9871 64.2838 63.2788 64.4819 61.5659 64.4653H49.3473C48.417 64.4653 47.5247 64.0968 46.8669 63.4409C46.209 62.7849 45.8394 61.8952 45.8394 60.9675V34.911C45.8394 34.4535 45.9304 34.0005 46.1072 33.5783C46.2839 33.1561 46.543 32.7731 46.8692 32.4514C47.1955 32.1298 47.5825 31.8758 48.0079 31.7044C48.4333 31.5329 48.8886 31.4473 49.3473 31.4525H61.1718C63.9823 31.3024 66.7609 32.1058 69.0548 33.7319C69.9989 34.472 70.755 35.4233 71.2617 36.509C71.7684 37.5946 72.0116 38.784 71.9714 39.9808C72.1012 41.5689 71.7438 43.1588 70.9467 44.5397C70.5543 45.0955 70.1052 45.6091 69.6066 46.0725C69.082 46.4976 68.5139 46.8665 67.9117 47.1729C69.6308 47.7928 71.1823 48.8018 72.4444 50.1205C73.6177 51.5877 74.2071 53.4347 74.0998 55.3082C74.0949 56.716 73.7573 58.1028 73.1145 59.3562ZM64.9556 41.1991C64.9758 40.7077 64.8707 40.2193 64.6501 39.7794C64.4296 39.3395 64.1007 38.9626 63.6943 38.6839C62.6341 38.0271 61.3916 37.7242 60.147 37.8192H56.4814C56.0226 37.814 55.5674 37.8997 55.142 38.0711C54.7166 38.2426 54.3296 38.4965 54.0033 38.8182C53.677 39.1399 53.418 39.5229 53.2413 39.9451C53.0645 40.3673 52.9735 40.8202 52.9735 41.2777C52.9735 41.7371 53.0642 42.1919 53.2405 42.6163C53.4168 43.0406 53.6752 43.4262 54.001 43.751C54.3267 44.0758 54.7134 44.3335 55.139 44.5093C55.5646 44.6851 56.0208 44.7755 56.4814 44.7755H59.674C61.0374 44.8454 62.3955 44.561 63.6155 43.9502C64.0813 43.6842 64.4619 43.2918 64.713 42.8188C64.9642 42.3458 65.0756 41.8114 65.0344 41.2777L64.9556 41.1991ZM66.7687 54.4043C66.791 53.8959 66.6876 53.3899 66.4676 52.9307C66.2477 52.4716 65.918 52.0733 65.5074 51.7711C64.3162 51.0747 62.9444 50.7464 61.5659 50.8279H56.4814C55.5511 50.8279 54.6588 51.1964 54.001 51.8524C53.3431 52.5083 52.9735 53.398 52.9735 54.3257V54.6008C52.9735 55.5285 53.3431 56.4181 54.001 57.0741C54.6588 57.7301 55.5511 58.0986 56.4814 58.0986H61.6448C63.0189 58.1873 64.389 57.873 65.5862 57.1946C66.0374 56.9085 66.4011 56.5043 66.6374 56.026C66.8738 55.5478 66.9737 55.0139 66.9264 54.4829L66.7687 54.4043Z" fill="#393941"/>
<path d="M107.327 56.6051C106.735 58.3613 105.751 59.9606 104.449 61.2819C103.144 62.5397 101.566 63.481 99.8378 64.033C97.9093 64.6858 95.883 65.0048 93.8467 64.9762C91.9346 65.0858 90.0198 64.8156 88.2133 64.1815C86.4067 63.5473 84.7445 62.5617 83.3229 61.2819C81.9474 59.8211 80.8878 58.094 80.2098 56.2077C79.5317 54.3215 79.2498 52.3164 79.3815 50.3169V35.0681C79.3918 34.1056 79.7826 33.186 80.4689 32.509C81.1552 31.8321 82.0817 31.4524 83.047 31.4525C84.0088 31.4525 84.9311 31.8334 85.6111 32.5115C86.2912 33.1895 86.6732 34.1092 86.6732 35.0681V50.1204C86.5064 52.3167 87.1827 54.4942 88.5651 56.2121C89.238 56.9115 90.0553 57.4565 90.9606 57.8094C91.8658 58.1623 92.8371 58.3146 93.8073 58.2558C94.7708 58.3169 95.7363 58.1734 96.64 57.8346C97.5437 57.4959 98.365 56.9696 99.0495 56.2907C100.426 54.6307 101.104 52.5039 100.941 50.3562V35.0681C100.952 34.1056 101.343 33.186 102.029 32.509C102.715 31.8321 103.642 31.4524 104.607 31.4525C105.569 31.4525 106.491 31.8334 107.171 32.5115C107.851 33.1895 108.233 34.1092 108.233 35.0681V50.0811C108.331 52.2927 108.024 54.5035 107.327 56.6051Z" fill="#393941"/>
<path d="M137.952 63.0505L123.014 43.3999V60.771C123.014 61.7232 122.637 62.6369 121.966 63.3139C121.294 63.9908 120.382 64.3763 119.427 64.3867C118.953 64.3867 118.483 64.2929 118.045 64.1107C117.607 63.9286 117.21 63.6616 116.877 63.3253C116.543 62.9891 116.28 62.5901 116.102 62.1517C115.924 61.7132 115.835 61.2439 115.84 60.771V35.0288C115.835 34.5577 115.924 34.0903 116.102 33.654C116.281 33.2177 116.545 32.8214 116.879 32.4882C117.213 32.155 117.611 31.8918 118.048 31.7139C118.486 31.5361 118.954 31.4472 119.427 31.4524H120.767C121.318 31.4524 121.861 31.5803 122.353 31.8259C122.846 32.0714 123.274 32.428 123.605 32.8673L137.952 51.7711V35.0288C137.947 34.5577 138.036 34.0903 138.214 33.654C138.392 33.2177 138.656 32.8214 138.991 32.4882C139.325 32.155 139.722 31.8918 140.16 31.7139C140.597 31.5361 141.066 31.4472 141.539 31.4524C142.49 31.4524 143.402 31.8292 144.075 32.4999C144.747 33.1706 145.125 34.0803 145.125 35.0288V60.8496C145.125 61.8018 144.749 62.7155 144.077 63.3925C143.406 64.0694 142.493 64.4549 141.539 64.4653H140.711C140.176 64.4423 139.652 64.304 139.176 64.0597C138.699 63.8154 138.282 63.4711 137.952 63.0505Z" fill="#393941"/>
<path d="M55.6537 22.256C55.6537 34.0464 46.0759 26.5006 34.2908 26.5006C22.5058 26.5006 12.8886 34.0071 12.8886 22.256C12.7647 19.3791 13.226 16.507 14.2447 13.8126C15.2634 11.1181 16.8185 8.65711 18.8162 6.57774C20.814 4.49836 23.2131 2.84364 25.8692 1.7132C28.5252 0.582764 31.3833 0 34.2711 0C37.159 0 40.0171 0.582764 42.6731 1.7132C45.3292 2.84364 47.7283 4.49836 49.7261 6.57774C51.7238 8.65711 53.2789 11.1181 54.2976 13.8126C55.3163 16.507 55.7776 19.3791 55.6537 22.256Z" fill="#BD172C"/>
</svg>
